<svg xmlns="http://www.w3.org/2000/svg" width="1086.382" height="1069.994" viewBox="0 0 1086.382 1069.994">
  <path id="blob_2_" data-name="blob(2)" d="M502.885,14.108C550.814,59.566,578.2,119.083,621.729,180.474c43.527,61.86,102.7,125.126,107.6,189.8s-44.995,130.75-107.6,167.772c-63.09,36.554-139.874,43.583-212.257,64.2s-140.852,54.362-194.65,39.834c-53.8-15-92.923-78.262-150.145-131.687C7.946,456.5-66.393,411.981-79.6,356.213s34.235-122.783,67-198.233C20.661,82.529,39.246-.888,91.577-44c52.82-42.646,139.874-44.989,217.636-30.93C386.486-60.874,454.956-30.881,502.885,14.108Z" transform="matrix(0.799, 0.602, -0.602, 0.799, 453.915, 115.27)" fill="#3f3d56"/>
</svg>
