<svg xmlns="http://www.w3.org/2000/svg" width="1794.731" height="1896.939" viewBox="0 0 1794.731 1896.939">
  <path id="blob" d="M945.156-28.026c75.874,62.015,109.688,197.32,140.2,314.772,30.515,118.392,58.555,218.931,77.524,332.624,19.793,112.754,31.339,239.6,1.649,360.813-28.865,120.271-98.141,236.784-193.809,323.228-96.492,87.385-218.551,144.7-319.166,100.539-99.791-44.162-178.139-190.742-280.4-273.429S141.88,1029.044,49.511,951.995c-93.193-76.109-151.748-211.414-132.78-333.564,18.144-122.15,113.811-233.025,203.706-314.772,90.719-82.686,174.84-136.244,258.137-193.561C462.7,52.781,545.992-7.354,647.433-43.06S868.458-90.041,945.156-28.026Z" transform="translate(1685.036 1313.634) rotate(154)" fill="#f8cb52"/>
</svg>
