<svg xmlns="http://www.w3.org/2000/svg" width="33" height="43" viewBox="0 0 33 43">
  <g id="Group_134" data-name="Group 134" transform="translate(-14639 -2516.324)">
    <path id="Rectangle_141" data-name="Rectangle 141" d="M5,0H19a0,0,0,0,1,0,0V43a0,0,0,0,1,0,0H5a5,5,0,0,1-5-5V5A5,5,0,0,1,5,0Z" transform="translate(14639 2516.324)" fill="#3f3e50"/>
    <path id="Rectangle_142" data-name="Rectangle 142" d="M0,0H15a5,5,0,0,1,5,5V38a5,5,0,0,1-5,5H0a0,0,0,0,1,0,0V0A0,0,0,0,1,0,0Z" transform="translate(14652 2516.324)" fill="#6c63ff"/>
  </g>
</svg>
