<svg id="phone" xmlns="http://www.w3.org/2000/svg" width="141.115" height="283.008" viewBox="0 0 141.115 283.008">
  <g id="phone_body" transform="translate(0)">
    <path id="Path_22" data-name="Path 22" d="M1012.841,319.065h-1.555v-42.6a24.654,24.654,0,0,0-24.655-24.655H896.381a24.654,24.654,0,0,0-24.654,24.655v233.7a24.654,24.654,0,0,0,24.654,24.655h90.251a24.655,24.655,0,0,0,24.655-24.655V349.387h1.555Z" transform="translate(-871.726 -251.811)" fill="#3f3d56"/>
    <path id="Path_21" data-name="Path 21" d="M1009.641,281.991V515.348a18.413,18.413,0,0,1-18.412,18.415H900.545a18.412,18.412,0,0,1-18.41-18.412V281.991a18.411,18.411,0,0,1,18.407-18.409h11a8.747,8.747,0,0,0,8.1,12.048h51.7a8.745,8.745,0,0,0,8.1-12.048h11.781a18.411,18.411,0,0,1,18.41,18.407Z" transform="translate(-876.019 -257.825)" fill="#0080f3"/>
  </g>
</svg>
