<svg xmlns="http://www.w3.org/2000/svg" width="238.288" height="176.199" viewBox="0 0 238.288 176.199">
  <g id="sketchPad_illustrations" transform="translate(0 0)">
    <path id="Path_38" data-name="Path 38" d="M332.66,212.267h-204.7V100.957h204.7Z" transform="translate(-127.961 -100.957)" fill="#3f3d56"/>
    <rect id="Rectangle_114" data-name="Rectangle 114" width="44" height="5" transform="translate(7.311 8.73)" fill="#f2f2f2"/>
    <rect id="Rectangle_115" data-name="Rectangle 115" width="45" height="5" transform="translate(74.311 8.73)" fill="#f2f2f2"/>
    <rect id="Rectangle_116" data-name="Rectangle 116" width="46" height="5" transform="translate(141.311 8.73)" fill="#f2f2f2"/>
    <path id="Path_39" data-name="Path 39" d="M210.394,131.005H164.961v-5.048h45.432Zm-44.928-.5h44.423v-4.038H165.466Z" transform="translate(-155.622 -119.647)" fill="#6c63fa"/>
    <path id="Path_40" data-name="Path 40" d="M477.393,131.005H431.961v-5.048h45.432Zm-44.928-.5h44.423v-4.038H432.466Z" transform="translate(-355.231 -119.647)" fill="#6c63fa"/>
    <path id="Path_41" data-name="Path 41" d="M744.393,131.005H698.961v-5.048h45.432Zm-44.928-.5h44.423v-4.038H699.466Z" transform="translate(-554.839 -119.647)" fill="#6c63fa"/>
    <rect id="Rectangle_117" data-name="Rectangle 117" width="208.89" height="0.645" transform="translate(29.398 172.325)" fill="#2f2e41"/>
    <path id="Path_42" data-name="Path 42" d="M393.5,392.293,409.4,361.5l4.291,2.524-18.173,29.531Z" transform="translate(-294.18 -270.256)" fill="#3f3d56"/>
    <path id="Path_43" data-name="Path 43" d="M481.971,587.722s2.931,2.3,3.263-2.624a5.651,5.651,0,0,1,2.056-4.061,4.5,4.5,0,0,1,5.534-.382,4.765,4.765,0,0,1,2.392,4.676,7.186,7.186,0,0,1-3.592,5.617,7.681,7.681,0,0,1-9.653-.954S479.7,587.469,481.971,587.722Z" transform="translate(-391.863 -458.996)" fill="#6c63ff"/>
    <ellipse id="Ellipse_28" data-name="Ellipse 28" cx="6.125" cy="6.125" rx="6.125" ry="6.125" transform="translate(112.1 43.542)" fill="#ffb8b8"/>
    <ellipse id="Ellipse_27" data-name="Ellipse 27" cx="32.812" cy="32.812" rx="32.812" ry="32.812" transform="translate(67.392 36.13)" fill="#6c63ff"/>
    <path id="Path_37" data-name="Path 37" d="M444.026,286.233a33.065,33.065,0,1,1,33.065-33.065A33.1,33.1,0,0,1,444.026,286.233Zm0-65.625a32.56,32.56,0,1,0,32.56,32.56A32.56,32.56,0,0,0,444.026,220.608Z" transform="translate(-339.531 -190.03)" fill="#fff"/>
    <path id="Path_44" data-name="Path 44" d="M583.586,304.393s1.612,8.381.967,9.993,9.026-.645,9.026-.645-1.934-8.381-1.612-10.316S583.586,304.393,583.586,304.393Z" transform="translate(-468.585 -251.825)" fill="#ffb8b8"/>
    <path id="Path_45" data-name="Path 45" d="M413.479,323.215l.645,8.7,3.2,13.669.991,3.739,1.612-5.8-1.612-13.217-.547-5.95Z" transform="translate(-309.116 -241.635)" fill="#ffb8b8"/>
    <path id="Path_46" data-name="Path 46" d="M659.31,419.063v9.026s-.967,11.6-2.9,14.506-2.579-11.6-2.579-11.6l1.516-10.638Z" transform="translate(-521.099 -338.773)" fill="#ffb8b8"/>
    <path id="Path_47" data-name="Path 47" d="M559.439,526.954s-1.612,1.934-.322,21.6-.645,33.848,3.546,33.848c0,0-1.289,4.191,2.257,4.513s5.158.645,5.48-.322.967-5.48,0-5.48c0,0,0,1.289.645-3.868s.645-29.657,2.257-32.881l5.158,11.927s0,5.48.967,8.059S582,581.756,582,581.756l-.322,2.256s7.737,1.289,8.059,0a7.741,7.741,0,0,0,0-3.868c-.322-.645-.322-.645.322-1.934a3.9,3.9,0,0,0,.322-3.224c-.322-.967-.322-21.921-.322-21.921s-.645-25.466-4.513-26.756S559.439,526.954,559.439,526.954Z" transform="translate(-449.918 -418.618)" fill="#2f2e41"/>
    <path id="Path_48" data-name="Path 48" d="M560.975,757.513l-2.579,4.513s-4.029-1.451-3.224,2.257a64.431,64.431,0,0,0,11.766-.161s1.612.645,1.934-.322-.806-4.352-1.773-4.352S560.975,757.513,560.975,757.513Z" transform="translate(-447.264 -591.796)" fill="#2f2e41"/>
    <path id="Path_49" data-name="Path 49" d="M647.136,748.853s-2.579,5.8-1.612,6.125,9.671,1.612,10.316,1.934,3.868.645,4.191-1.289a2.371,2.371,0,0,0-1.612-2.579s-3.546-.645-4.513-3.868S647.136,748.853,647.136,748.853Z" transform="translate(-514.728 -584.426)" fill="#2f2e41"/>
    <path id="Path_50" data-name="Path 50" d="M564.625,340.312s-8.7-1.612-10.638,0-9.993,4.835-9.993,6.447,4.191,17.407,4.191,17.407-2.257,23.855,0,24.5,6.125-1.289,10.638.967S576.23,387.7,576.23,387.7s-4.835-20.631-3.546-24.5,2.257-17.085,2.257-17.085S569.46,340.312,564.625,340.312Z" transform="translate(-438.986 -279.362)" fill="#8985a8"/>
    <path id="Path_51" data-name="Path 51" d="M536.3,364.145l-2.256.645s-4.836,15.151-2.9,15.8a69.158,69.158,0,0,0,8.059,1.934C539.851,382.52,536.3,364.145,536.3,364.145Z" transform="translate(-429.04 -297.716)" fill="#8985a8"/>
    <path id="Path_52" data-name="Path 52" d="M646.167,357.759l5.158,1.934s6.77,12.572,5.158,14.184-8.7,3.224-8.7,3.224Z" transform="translate(-515.371 -292.942)" fill="#8985a8"/>
    <path id="Path_53" data-name="Path 53" d="M574.951,267.6a3.462,3.462,0,0,0-1.532.068,3.992,3.992,0,0,0-1.089.714,12.749,12.749,0,0,1-1.862,1.233,4.344,4.344,0,0,0-1.449,1.015,3.082,3.082,0,0,0-.409.774,9.273,9.273,0,0,0-.488,5.047,2.323,2.323,0,0,0,.215.693c.335.617,1.075.861,1.7,1.184a14.513,14.513,0,0,1,3.051,2.563,5.965,5.965,0,0,0,1.206.929c1.385.755,3.078.509,4.632.242a.835.835,0,0,0,.833-.843l1.227-5.519a9.012,9.012,0,0,0,.314-2.51,7.144,7.144,0,0,0-1.794-4.147C578.361,267.931,576.449,267.755,574.951,267.6Z" transform="translate(-456.913 -225.494)" fill="#2f2e41"/>
    <ellipse id="Ellipse_29" data-name="Ellipse 29" cx="9" rx="9" transform="translate(83.311 171.73)" fill="#6c63ff"/>
    <ellipse id="Ellipse_30" data-name="Ellipse 30" cx="8.5" cy="1" rx="8.5" ry="1" transform="translate(83.311 171.73)" fill="#6c63ff"/>
    <ellipse id="Ellipse_31" data-name="Ellipse 31" cx="4.796" cy="0.274" rx="4.796" ry="0.274" transform="translate(77.235 169.593)" fill="#6c63ff"/>
    <ellipse id="Ellipse_32" data-name="Ellipse 32" cx="4.796" cy="0.274" rx="4.796" ry="0.274" transform="translate(94.399 175.651)" fill="#6c63ff"/>
  </g>
</svg>
