<svg xmlns="http://www.w3.org/2000/svg" width="637.557" height="827.464" viewBox="0 0 637.557 827.464">
  <g id="undraw_Letter_re_8m03" transform="translate(-0.001 -0.001)">
    <path id="Path_167" data-name="Path 167" d="M538.987,377.928,361.027,339.54l-2.313-.5a6.4,6.4,0,0,0-7.1,9.1l70.657,143.488a6.423,6.423,0,0,0,4.771,3.493,6.359,6.359,0,0,0,5.605-1.922l49.077-51.747a3.725,3.725,0,0,1,2.738-1.2,3.853,3.853,0,0,1,3.43,1.994l10.052,18.593a6.254,6.254,0,0,0,7,3.209l.05-.011a6.263,6.263,0,0,0,4.963-5.949l2.014-42.92a3.913,3.913,0,0,1,.393-1.542,4.165,4.165,0,0,1,1.009-1.246l28.313-23.241a6.407,6.407,0,0,0-2.7-11.213Zm1.087,9.238-28.313,23.241a6.312,6.312,0,0,0-1,1.007L360.705,343.359a2.231,2.231,0,0,0-.412-.145,2.563,2.563,0,0,0-2.137,4.563L481.539,438.41a6.141,6.141,0,0,0-1.671,1.274l-49.076,51.747a3.841,3.841,0,0,1-6.226-.943L353.907,347a3.85,3.85,0,0,1,4.26-5.452l2.368.512,177.9,38.375a3.848,3.848,0,0,1,1.634,6.731Z" transform="translate(-350.951 -67.375)" fill="#0080f3"/>
    <path id="Path_168" data-name="Path 168" d="M535.225,931.7c-15.963-4.312-35.39-22.243-31.231-46.891,2.063-12.224,9.98-20.137,18.189-25.253,11.354-7.077,24.286-9.744,36.748-10.418,14.374-.777,28.732,1.182,43,3.255,14.084,2.046,28.17,3.878,42.317,5a545.513,545.513,0,0,0,165.164-12.264q20.032-4.623,39.824-10.847a273.6,273.6,0,0,0,36.58-13.672c15.687-7.531,41.2-22.187,39.119-49.329-1.1-14.391-9.578-25.886-18.127-33.894-10.336-9.683-22.3-16.053-34.012-22.24-54.49-28.776-109.086-57.21-163.628-85.813-12.73-6.676-25.544-13.172-37.9-21-11.567-7.324-23.079-15.832-32.387-27.6-8.13-10.275-15.395-24.068-15.138-39.487.213-12.787,6.032-23.638,13.159-31.748,17.645-20.078,42.605-28.219,65.165-32.483,28.027-5.3,56.46-5.27,84.506-10.386,22.645-4.131,46.841-12.1,65.259-30.791a58.368,58.368,0,0,0,15.909-27.795,54.628,54.628,0,0,0-3.271-32.983c-4.989-11.916-12.947-21.409-21.315-29.182a127.882,127.882,0,0,0-32.328-21.6c-24.874-11.853-51.03-18.024-76.509-27.121-12.5-4.461-25.117-9.353-36.72-17.015-9.83-6.492-20.538-15.242-26.007-28.254-11.284-26.847,15.635-42.848,30.889-48.909a198.6,198.6,0,0,1,31.924-9.139c2.3-.494,1.324-5.085-.965-4.593a191,191,0,0,0-33.524,9.789c-9.2,3.822-18.689,8.844-25.914,17.487A36.4,36.4,0,0,0,665.776,245c1.914,12.882,10.233,22.807,18.045,30,10.332,9.507,22.111,15.716,34.055,20.777,12.579,5.33,25.424,9.484,38.266,13.559,25.66,8.142,52.47,15.4,75.634,32.724,16.2,12.12,38.216,34.845,32.826,63.012-2.393,12.5-9.658,22.28-17.5,29.47a101.888,101.888,0,0,1-31.339,19.055c-51.331,20.658-107.824,5.885-157.832,33.943-17,9.54-37.656,26.909-37.822,54.237-.086,14.2,5.6,27.217,12.64,37.508,8.426,12.326,19.338,21.441,30.44,29.06a354.326,354.326,0,0,0,36.35,21.046q20.519,10.778,41.047,21.526l83.051,43.552L864.9,716.1c12.594,6.6,25.511,12.94,36.962,22.635,9.376,7.938,20.453,20.961,19.5,37.132-.76,12.843-9.291,22.11-17.087,28.306-10.095,8.023-21.435,13.213-32.718,17.525-13.014,4.974-26.242,9.1-39.5,12.81A533.239,533.239,0,0,1,749.2,850.729a544.887,544.887,0,0,1-84.178,3.137q-21.3-.857-42.525-3.407c-14.589-1.757-29.115-4.464-43.741-5.665-13.23-1.086-26.587-.835-39.616,2.657-10.879,2.915-22.372,8.112-30.629,18.251a40.375,40.375,0,0,0-8.57,27.27A48.968,48.968,0,0,0,509.977,920a45.425,45.425,0,0,0,24.284,16.3c2.28.616,3.256-3.975.965-4.593Z" transform="translate(-309.256 -109.281)" fill="#e6e6e6"/>
    <rect id="Rectangle_147" data-name="Rectangle 147" width="414.757" height="2.868" transform="translate(222.801 824.597)" fill="#3f3d56"/>
    <circle id="Ellipse_63" data-name="Ellipse 63" cx="27.095" cy="27.095" r="27.095" transform="translate(577.233 635.3)" fill="#e6e6e6"/>
    <circle id="Ellipse_64" data-name="Ellipse 64" cx="27.095" cy="27.095" r="27.095" transform="translate(527.801 253.411)" fill="#e6e6e6"/>
    <path id="Path_169" data-name="Path 169" d="M754.865,127.9l-75.234,32.706a13.688,13.688,0,0,0-7.088,17.99L695.9,232.335a13.688,13.688,0,0,0,17.99,7.088l75.234-32.706a13.688,13.688,0,0,0,7.088-17.99l-23.361-53.738a13.688,13.688,0,0,0-17.99-7.088Zm3.115,7.165a5.834,5.834,0,0,1,1.406-.4l-25.436,47.99-52.242-14.3a5.855,5.855,0,0,1,1.038-.582Zm28.034,64.486-75.234,32.706a5.866,5.866,0,0,1-7.71-3.038l-23.152-53.256,54.988,15.048a3.907,3.907,0,0,0,4.483-1.939l26.623-50.23,23.039,53a5.866,5.866,0,0,1-3.037,7.71Z" transform="translate(-261.227 -126.768)" fill="#e6e6e6"/>
    <circle id="Ellipse_65" data-name="Ellipse 65" cx="68.504" cy="68.504" r="68.504" transform="translate(340.749 330.26)" fill="#0080f3"/>
    <path id="Path_170" data-name="Path 170" d="M668.2,809.733H649.311a8.329,8.329,0,0,1-8.32-8.32V643.957a8.329,8.329,0,0,1,8.32-8.32H668.2a8.329,8.329,0,0,1,8.32,8.32V801.413A8.329,8.329,0,0,1,668.2,809.733Z" transform="translate(-269.744 15.708)" fill="#2f2e41"/>
    <path id="Path_171" data-name="Path 171" d="M697.4,809.733H678.5a8.33,8.33,0,0,1-8.32-8.32V643.957a8.33,8.33,0,0,1,8.32-8.32H697.4a8.329,8.329,0,0,1,8.32,8.32V801.413A8.329,8.329,0,0,1,697.4,809.733Z" transform="translate(-261.571 15.708)" fill="#2f2e41"/>
    <path id="Path_172" data-name="Path 172" d="M770.574,665.276a8.374,8.374,0,0,1-2.449-.369,8.269,8.269,0,0,1-4.91-4.055L689.4,521.768a8.319,8.319,0,0,1,3.449-11.249l16.687-8.856a8.318,8.318,0,0,1,11.25,3.449L794.6,644.2a8.317,8.317,0,0,1-3.449,11.249L774.465,664.3a8.269,8.269,0,0,1-3.891.975Z" transform="translate(-256.461 -22.075)" fill="#0080f3"/>
    <path id="Path_173" data-name="Path 173" d="M666.6,548.792a8.269,8.269,0,0,1-2.922-.534h0l-147.3-55.646a8.312,8.312,0,0,1-4.832-10.722l6.664-17.674a8.344,8.344,0,0,1,10.734-4.835l147.294,55.633a8.343,8.343,0,0,1,4.846,10.72l-6.676,17.676A8.357,8.357,0,0,1,666.6,548.792Z" transform="translate(-306.138 -33.791)" fill="#0080f3"/>
    <rect id="Rectangle_148" data-name="Rectangle 148" width="101.199" height="197.727" rx="6" transform="translate(357.876 479.168)" fill="#2f2e41"/>
    <path id="Path_174" data-name="Path 174" d="M731.347,386.536c4.025,8.833,7.878,19.508,3.545,28.957a16.287,16.287,0,0,1-8.34,8.586c-4.465,1.781-9.332.765-13.47-1.389-8.712-4.534-14.327-12.958-22.105-18.73a26.283,26.283,0,0,0-12.165-5.243c-5.111-.666-10.185.539-15.184,1.47-5.317.99-10.812,1.512-15.733-1.184a23.1,23.1,0,0,1-9.652-11.027c-1.013-2.249-4.324-.3-3.316,1.938,4.184,9.288,12.838,15.618,23.235,14.886,5.5-.387,10.815-2.164,16.326-2.418a21.815,21.815,0,0,1,13.956,4.462c8.54,6.088,14.336,15.437,24.134,19.858,4.623,2.086,9.916,2.956,14.79,1.159a19.388,19.388,0,0,0,9.9-8.624c6.43-11.071,2.3-23.869-2.607-34.639-1.023-2.246-4.334-.3-3.316,1.938Z" transform="translate(-271.495 -54.858)" fill="#2f2e41"/>
    <path id="Path_175" data-name="Path 175" d="M680.466,465.708c-4.231-.119-9.5-.266-13.555-3.23a10.411,10.411,0,0,1-4.1-7.772,7,7,0,0,1,2.381-5.751c2.117-1.791,5.211-2.211,8.549-1.23l-3.456-25.249,2.537-.348,4.061,29.682-2.117-.971c-2.454-1.126-5.826-1.7-7.921.07a4.5,4.5,0,0,0-1.475,3.706,7.868,7.868,0,0,0,3.048,5.8c3.157,2.306,7.355,2.6,12.117,2.737Z" transform="translate(-263.639 -44.071)" fill="#2f2e41"/>
    <rect id="Rectangle_149" data-name="Rectangle 149" width="13.787" height="2.56" transform="translate(380.319 380.581)" fill="#2f2e41"/>
    <rect id="Rectangle_150" data-name="Rectangle 150" width="13.787" height="2.56" transform="translate(423.838 380.581)" fill="#2f2e41"/>
    <path id="Path_176" data-name="Path 176" d="M644.888,541.647l-60.535-18.459a7.68,7.68,0,0,1-5.2-9.235l7.067-27.845a7.68,7.68,0,0,1,10.741-5.047L657,509.6a7.694,7.694,0,0,1,4.474,9.895L654.8,537.172a7.694,7.694,0,0,1-9.907,4.475Z" transform="translate(-287.126 -27.779)" fill="#2f2e41"/>
    <path id="Path_177" data-name="Path 177" d="M690.238,520.332,716.2,578.049a7.68,7.68,0,0,0,9.819,4l26.729-10.53a7.68,7.68,0,0,0,3.649-11.293l-35.9-55.953a7.694,7.694,0,0,0-10.381-3.187l-16.691,8.858a7.694,7.694,0,0,0-3.187,10.393Z" transform="translate(-256.207 -22.215)" fill="#2f2e41"/>
    <path id="Path_178" data-name="Path 178" d="M538.987,377.928,361.027,339.54l-2.313-.5a6.4,6.4,0,0,0-7.1,9.1l70.657,143.488a6.423,6.423,0,0,0,4.771,3.493,6.359,6.359,0,0,0,5.605-1.922l49.077-51.747a3.725,3.725,0,0,1,2.738-1.2,3.853,3.853,0,0,1,3.43,1.994l10.052,18.593a6.254,6.254,0,0,0,7,3.209l.05-.011a6.263,6.263,0,0,0,4.963-5.949l2.014-42.92a3.913,3.913,0,0,1,.393-1.542,4.165,4.165,0,0,1,1.009-1.246l28.313-23.241a6.407,6.407,0,0,0-2.7-11.213Zm1.087,9.238-28.313,23.241a6.312,6.312,0,0,0-1,1.007,5.952,5.952,0,0,0-.681,1.069,6.139,6.139,0,0,0-.464,1.217l0,.013a6.059,6.059,0,0,0-.2,1.342l-2.013,42.92a3.718,3.718,0,0,1-2.973,3.568l-.025.005a3.726,3.726,0,0,1-4.212-1.913l-10.055-18.606a6.386,6.386,0,0,0-5.248-3.336l-.012,0c-.146-.007-.292-.014-.435-.009a6.227,6.227,0,0,0-2.908.722,6.138,6.138,0,0,0-1.671,1.274l-49.076,51.747a3.841,3.841,0,0,1-6.226-.943L353.907,347a3.85,3.85,0,0,1,4.26-5.452l2.368.512,177.9,38.375a3.848,3.848,0,0,1,1.634,6.731Z" transform="translate(-350.951 -67.375)" fill="#3f3d56"/>
    <path id="Path_179" data-name="Path 179" d="M509.989,410.741l-1.057,2.332-.653-.288,0-.012-149.94-67.989,125.2,91.986.012,0,.332.254-1.51,2.064-2.177-1.6L356.813,346.851a2.563,2.563,0,0,1,2.137-4.563,2.231,2.231,0,0,1,.412.145l150.059,68.055Z" transform="translate(-349.608 -66.448)" fill="#3f3d56"/>
  </g>
</svg>
